<?xml version="1.0" encoding="utf-8"?>
<!-- Generator: Adobe Illustrator 27.1.1, SVG Export Plug-In . SVG Version: 6.00 Build 0)  -->
<svg version="1.1" id="Layer_1" xmlns="http://www.w3.org/2000/svg" xmlns:xlink="http://www.w3.org/1999/xlink" x="0px" y="0px"
	 viewBox="0 0 2000 2000" style="enable-background:new 0 0 2000 2000;" xml:space="preserve">
<style type="text/css">
	.st0{opacity:0.98;}
	.st1{fill:#0D0E0E;}
	.st2{fill:#020202;}
</style>
<g class="st0">
	<g>
		<path class="st1" d="M568.1,1225.3h-60.7l-8.5-75.6l-20,75.6h-57.4l39.9-150.5l-11.2-18.1h73.3l-18.1,68.8h0.4l48.2-68.8h42.4
			l-47.8,68.4L568.1,1225.3z"/>
		<path class="st1" d="M605.9,1075l-11-18.2h73.3l-44.8,168.6H566L605.9,1075z"/>
		<path class="st1" d="M654.5,1225.3c-5.3-0.4-8.9-2.4-10.8-6.1c-1.9-3.7-2-8.3-0.4-13.7l34.8-130.5l-11.2-18.2h132.7
			c4.3-0.1,7.9,0.5,10.6,2c2.8,1.4,4.9,3.4,6.3,5.9c1.4,2.5,2.2,5.3,2.3,8.4c0.1,3.1-0.3,6.3-1.3,9.6l-9.2,35.2h-57.8l7-26.5
			c0.1-0.6,0-1.2-0.4-1.8c-0.4-0.7-1.1-1.1-2.3-1.1h-34.7l10.3,4.7l-26.7,101.1h20.2l5.6-1.3c1.1-0.8,1.9-2.5,2.3-4.9l8.1-30.9H798
			l-13,49.1c-0.6,2.5-1.6,4.9-2.9,7.2c-1.3,2.3-3,4.3-5.1,6c-2,1.8-4.5,3.2-7.4,4.3c-2.9,1.1-6.2,1.6-9.9,1.6H654.5z"/>
		<path class="st1" d="M942.1,1225.3h-60.7l-8.5-75.6l-20,75.6h-57.4l39.9-150.5l-11.2-18.1h73.3l-18.1,68.8h0.4l48.2-68.8h42.4
			l-47.8,68.4L942.1,1225.3z"/>
		<path class="st1" d="M1107.1,1126.4l-21.1,79.8c-0.6,2.5-1.6,4.9-2.9,7.2c-1.3,2.3-3,4.3-5.1,6c-2,1.8-4.5,3.2-7.4,4.3
			c-2.9,1.1-6.3,1.6-10.1,1.6H955.5c-5.4-0.4-9.1-2.4-11-6.1c-1.9-3.7-2-8.3-0.2-13.7l9.6-35.9h57.4c-0.6,2.3-1.1,4.1-1.4,5.3
			c-0.4,1.3-0.7,2.5-1,3.6c-0.3,1.1-0.6,2.4-1,3.7c-0.4,1.3-0.8,3.2-1.4,5.6l-1.4,6.3h20.2c2.6,0,4.5-0.4,5.4-1.3
			c1.1-0.8,1.9-2.5,2.3-4.9l9.6-35.4h-84.3l20.6-77.6l-10.8-18.2h132.7c4.3-0.1,7.9,0.5,10.7,2c2.8,1.4,4.8,3.4,6.2,5.9
			c1.4,2.5,2.2,5.3,2.3,8.4c0.2,3.1-0.2,6.3-1.2,9.6l-6.9,25.8h-57.6l4.5-17.1c0-0.8-0.1-1.4-0.4-1.8c-0.4-0.7-1.1-1.1-2.3-1.1
			h-34.7l10.3,4.7c-1.4,5.5-3,11.2-4.6,16.9c-1.6,5.7-3.1,11.2-4.4,16.5H1107.1z"/>
		<path class="st1" d="M1163.3,1225.3c-5.4-0.4-9.1-2.4-11-6.1c-1.9-3.7-2-8.3-0.2-13.7l34.7-130.5l-11-18.1h132.5
			c4.1-0.1,7.5,0.5,10.3,1.7c2.8,1.3,4.9,3,6.3,5.3c1.4,2.3,2.3,4.9,2.7,7.9c0.4,3,0.2,5.9-0.5,8.9c-5.7,21.1-11.2,42-16.7,62.7
			c-5.5,20.8-11,41.7-16.5,62.7c-0.7,2.5-1.7,4.9-3,7.2c-1.3,2.3-2.9,4.3-5,6c-2,1.8-4.5,3.2-7.4,4.3c-2.9,1.1-6.3,1.6-10.1,1.6
			H1163.3z M1240.7,1188c4.3-16.3,8.7-32.4,13-48.5c4.3-16,8.6-32.2,12.8-48.5c0-0.5-0.1-1.1-0.4-1.8c-0.4-0.7-1.1-1.1-2.3-1.1H1229
			l10.5,4.7c-2.2,8.2-4.3,16.2-6.4,24c-2.1,7.8-4.2,15.6-6.2,23.3c-2,7.7-4.1,15.5-6.2,23.3c-2.1,7.8-4.2,15.9-6.4,24.2l-1.4,6.3
			h20.2c2.6,0,4.5-0.4,5.4-1.3C1239.5,1192,1240.2,1190.4,1240.7,1188z"/>
		<path class="st1" d="M1343.8,1075l-11-18.2h98.4l-7.8,127.1l33.6-127.1h57.8l-44.6,168.6h-82.7l7.8-126.9l-33.8,126.9H1304
			L1343.8,1075z"/>
	</g>
	<g>
		<polygon class="st1" points="864.6,884.7 975.3,773.9 873.7,773.9 841.7,805.9 762.9,884.7 873.9,995.7 975.6,995.7 		"/>
		<path class="st1" d="M1157.2,773.9h-145.7c-5.8,0-11.6,2.3-16.4,6.1c-4.8,3.8-8.4,9-9.9,14.8l-38.9,151.3l49.7,49.7h104.2
			c11.5,0,23.3-9.3,26.3-20.9l46.3-180.1C1175.7,783.3,1168.7,773.9,1157.2,773.9z M1089.6,821.1l-32.8,127.5c-0.9,3.3-4.2,6-7.6,6
			H1026c-3.3,0-5.3-2.7-4.5-6l32.8-127.5c0.9-3.3,4.2-6,7.6-6h23.3C1088.5,815,1090.5,817.7,1089.6,821.1z"/>
	</g>
</g>
<g>
	<g>
		<g>
			<path class="st2" d="M1546.6,1031v3.3h-4.4v13.6h-4.1v-13.6h-4.4v-3.3H1546.6z"/>
			<path class="st2" d="M1567.7,1031v16.8h-4.1v-10.1l-3.8,10.1h-3.3l-3.8-10.1v10.1h-4.1V1031h4.8l4.7,11.6l4.7-11.6H1567.7z"/>
		</g>
		<g>
			<path class="st2" d="M1551.6,1066.8c-15.1,0-27.4-12.3-27.4-27.4c0-15.1,12.3-27.4,27.4-27.4c15.1,0,27.4,12.3,27.4,27.4
				S1566.6,1066.8,1551.6,1066.8z M1551.6,1015.2c-13.3,0-24.2,10.8-24.2,24.2c0,13.3,10.8,24.2,24.2,24.2
				c13.3,0,24.2-10.8,24.2-24.2C1575.8,1026.1,1564.9,1015.2,1551.6,1015.2z"/>
		</g>
	</g>
</g>
</svg>
